<mxfile host="app.diagrams.net" modified="2022-03-15T16:36:55.815Z" agent="5.0 (Windows NT 10.0; Win64; x64) AppleWebKit/537.36 (KHTML, like Gecko) Chrome/89.0.4389.90 Safari/537.36 Edg/89.0.774.57" etag="sY0p4ebFGSUTY9zZLn0Q" version="16.6.2" type="github">
  <diagram id="_p0asY1lkmHO6eafm9Sz" name="Page-1">
    <mxGraphModel dx="-36" dy="497" grid="1" gridSize="10" guides="1" tooltips="1" connect="1" arrows="1" fold="1" page="1" pageScale="1" pageWidth="827" pageHeight="1169" math="0" shadow="0">
      <root>
        <mxCell id="0" />
        <mxCell id="1" parent="0" />
        <mxCell id="tDPEr0B8wHXLI6z0YyTJ-1" value="" style="shape=table;startSize=0;container=1;collapsible=0;childLayout=tableLayout;right=0;left=0;fontStyle=1;fontSize=12;" vertex="1" parent="1">
          <mxGeometry x="1400" y="240" width="478" height="280" as="geometry" />
        </mxCell>
        <mxCell id="tDPEr0B8wHXLI6z0YyTJ-2" value="" style="shape=tableRow;horizontal=0;startSize=0;swimlaneHead=0;swimlaneBody=0;top=0;left=0;bottom=0;right=0;collapsible=0;dropTarget=0;fillColor=none;points=[[0,0.5],[1,0.5]];portConstraint=eastwest;fontStyle=1;fontSize=12;" vertex="1" parent="tDPEr0B8wHXLI6z0YyTJ-1">
          <mxGeometry width="478" height="280" as="geometry" />
        </mxCell>
        <mxCell id="tDPEr0B8wHXLI6z0YyTJ-20" style="shape=partialRectangle;html=1;whiteSpace=wrap;connectable=0;overflow=hidden;fillColor=#f5f5f5;top=0;left=0;bottom=0;right=0;pointerEvents=1;fontColor=#333333;strokeColor=#666666;fontStyle=1;fontSize=12;" vertex="1" parent="tDPEr0B8wHXLI6z0YyTJ-2">
          <mxGeometry width="40" height="280" as="geometry">
            <mxRectangle width="40" height="280" as="alternateBounds" />
          </mxGeometry>
        </mxCell>
        <mxCell id="tDPEr0B8wHXLI6z0YyTJ-18" value="Emulsion Layer" style="shape=partialRectangle;html=1;whiteSpace=wrap;connectable=0;overflow=hidden;fillColor=#fff2cc;top=0;left=0;bottom=0;right=0;pointerEvents=1;strokeColor=#d6b656;horizontal=0;fontStyle=1;fontSize=12;" vertex="1" parent="tDPEr0B8wHXLI6z0YyTJ-2">
          <mxGeometry x="40" width="20" height="280" as="geometry">
            <mxRectangle width="20" height="280" as="alternateBounds" />
          </mxGeometry>
        </mxCell>
        <mxCell id="tDPEr0B8wHXLI6z0YyTJ-17" value="plastic base" style="shape=partialRectangle;html=1;whiteSpace=wrap;connectable=0;overflow=hidden;fillColor=#dae8fc;top=0;left=0;bottom=0;right=0;pointerEvents=1;strokeColor=#6c8ebf;fontStyle=1;fontSize=12;" vertex="1" parent="tDPEr0B8wHXLI6z0YyTJ-2">
          <mxGeometry x="60" width="40" height="280" as="geometry">
            <mxRectangle width="40" height="280" as="alternateBounds" />
          </mxGeometry>
        </mxCell>
        <mxCell id="tDPEr0B8wHXLI6z0YyTJ-3" value="Emulsion Layer" style="shape=partialRectangle;html=1;whiteSpace=wrap;connectable=0;overflow=hidden;fillColor=#fff2cc;top=0;left=0;bottom=0;right=0;pointerEvents=1;strokeColor=#d6b656;horizontal=0;fontStyle=1;fontSize=12;" vertex="1" parent="tDPEr0B8wHXLI6z0YyTJ-2">
          <mxGeometry x="100" width="20" height="280" as="geometry">
            <mxRectangle width="20" height="280" as="alternateBounds" />
          </mxGeometry>
        </mxCell>
        <mxCell id="tDPEr0B8wHXLI6z0YyTJ-4" value="Tungsten Layer&lt;br style=&quot;font-size: 12px;&quot;&gt;(Passive Absorber)" style="shape=partialRectangle;html=1;whiteSpace=wrap;connectable=0;overflow=hidden;fillColor=#f5f5f5;top=0;left=0;bottom=0;right=0;pointerEvents=1;fontColor=#333333;strokeColor=#666666;fontStyle=1;fontSize=12;" vertex="1" parent="tDPEr0B8wHXLI6z0YyTJ-2">
          <mxGeometry x="120" width="200" height="280" as="geometry">
            <mxRectangle width="200" height="280" as="alternateBounds" />
          </mxGeometry>
        </mxCell>
        <mxCell id="tDPEr0B8wHXLI6z0YyTJ-5" value="Emulsion Layer&lt;br style=&quot;font-size: 12px;&quot;&gt;" style="shape=partialRectangle;html=1;whiteSpace=wrap;connectable=0;overflow=hidden;fillColor=#fff2cc;top=0;left=0;bottom=0;right=0;pointerEvents=1;strokeColor=#d6b656;horizontal=0;fontStyle=1;fontSize=12;" vertex="1" parent="tDPEr0B8wHXLI6z0YyTJ-2">
          <mxGeometry x="320" width="20" height="280" as="geometry">
            <mxRectangle width="20" height="280" as="alternateBounds" />
          </mxGeometry>
        </mxCell>
        <mxCell id="tDPEr0B8wHXLI6z0YyTJ-6" value="plastic base" style="shape=partialRectangle;html=1;whiteSpace=wrap;connectable=0;overflow=hidden;fillColor=#dae8fc;top=0;left=0;bottom=0;right=0;pointerEvents=1;strokeColor=#6c8ebf;fontStyle=1;fontSize=12;" vertex="1" parent="tDPEr0B8wHXLI6z0YyTJ-2">
          <mxGeometry x="340" width="40" height="280" as="geometry">
            <mxRectangle width="40" height="280" as="alternateBounds" />
          </mxGeometry>
        </mxCell>
        <mxCell id="tDPEr0B8wHXLI6z0YyTJ-7" value="Emulsion Layer" style="shape=partialRectangle;html=1;whiteSpace=wrap;connectable=0;overflow=hidden;fillColor=#fff2cc;top=0;left=0;bottom=0;right=0;pointerEvents=1;strokeColor=#d6b656;horizontal=0;fontStyle=1;fontSize=12;" vertex="1" parent="tDPEr0B8wHXLI6z0YyTJ-2">
          <mxGeometry x="380" width="20" height="280" as="geometry">
            <mxRectangle width="20" height="280" as="alternateBounds" />
          </mxGeometry>
        </mxCell>
        <mxCell id="tDPEr0B8wHXLI6z0YyTJ-8" value="Tungsten Layer" style="shape=partialRectangle;html=1;whiteSpace=wrap;connectable=0;overflow=hidden;fillColor=#f5f5f5;top=0;left=0;bottom=0;right=0;pointerEvents=1;fontColor=#333333;strokeColor=#666666;fontStyle=1;fontSize=12;" vertex="1" parent="tDPEr0B8wHXLI6z0YyTJ-2">
          <mxGeometry x="400" width="78" height="280" as="geometry">
            <mxRectangle width="78" height="280" as="alternateBounds" />
          </mxGeometry>
        </mxCell>
        <mxCell id="tDPEr0B8wHXLI6z0YyTJ-21" value="1 mm" style="text;html=1;align=center;verticalAlign=middle;resizable=0;points=[];autosize=1;strokeColor=none;fillColor=none;fontStyle=1;fontSize=12;" vertex="1" parent="1">
          <mxGeometry x="1590" y="210" width="50" height="20" as="geometry" />
        </mxCell>
        <mxCell id="tDPEr0B8wHXLI6z0YyTJ-22" value="" style="endArrow=classic;startArrow=classic;html=1;rounded=0;entryX=0.669;entryY=-0.019;entryDx=0;entryDy=0;entryPerimeter=0;fontStyle=1;fontSize=12;" edge="1" parent="1" target="tDPEr0B8wHXLI6z0YyTJ-1">
          <mxGeometry width="50" height="50" relative="1" as="geometry">
            <mxPoint x="1520" y="235" as="sourcePoint" />
            <mxPoint x="1570" y="185" as="targetPoint" />
          </mxGeometry>
        </mxCell>
        <mxCell id="tDPEr0B8wHXLI6z0YyTJ-24" value="" style="endArrow=classic;startArrow=classic;html=1;rounded=0;fontStyle=1;fontSize=12;" edge="1" parent="1">
          <mxGeometry width="50" height="50" relative="1" as="geometry">
            <mxPoint x="1740" y="230" as="sourcePoint" />
            <mxPoint x="1780" y="230" as="targetPoint" />
          </mxGeometry>
        </mxCell>
        <mxCell id="tDPEr0B8wHXLI6z0YyTJ-25" value="0.175 mm" style="text;html=1;align=center;verticalAlign=middle;resizable=0;points=[];autosize=1;strokeColor=none;fillColor=none;fontStyle=1;fontSize=12;" vertex="1" parent="1">
          <mxGeometry x="1730" y="210" width="70" height="20" as="geometry" />
        </mxCell>
        <mxCell id="tDPEr0B8wHXLI6z0YyTJ-26" value="" style="endArrow=classic;startArrow=classic;html=1;rounded=0;fontStyle=1;fontSize=12;" edge="1" parent="1">
          <mxGeometry width="50" height="50" relative="1" as="geometry">
            <mxPoint x="1440" y="230" as="sourcePoint" />
            <mxPoint x="1460" y="230" as="targetPoint" />
          </mxGeometry>
        </mxCell>
        <mxCell id="tDPEr0B8wHXLI6z0YyTJ-27" value="0.070 mm" style="text;html=1;align=center;verticalAlign=middle;resizable=0;points=[];autosize=1;strokeColor=none;fillColor=none;fontStyle=1;fontSize=12;" vertex="1" parent="1">
          <mxGeometry x="1420" y="210" width="70" height="20" as="geometry" />
        </mxCell>
        <mxCell id="tDPEr0B8wHXLI6z0YyTJ-28" value="" style="endArrow=classic;startArrow=classic;html=1;rounded=0;fontSize=12;" edge="1" parent="1">
          <mxGeometry width="50" height="50" relative="1" as="geometry">
            <mxPoint x="1360" y="520" as="sourcePoint" />
            <mxPoint x="1360" y="240" as="targetPoint" />
          </mxGeometry>
        </mxCell>
        <mxCell id="tDPEr0B8wHXLI6z0YyTJ-29" value="40 cm" style="text;html=1;align=center;verticalAlign=middle;resizable=0;points=[];autosize=1;strokeColor=none;fillColor=none;fontSize=12;fontStyle=1" vertex="1" parent="1">
          <mxGeometry x="1310" y="360" width="50" height="20" as="geometry" />
        </mxCell>
      </root>
    </mxGraphModel>
  </diagram>
</mxfile>
